<svg xmlns="http://www.w3.org/2000/svg" xmlns:xlink="http://www.w3.org/1999/xlink" width="500" zoomAndPan="magnify" viewBox="0 0 375 374.999991" height="500" preserveAspectRatio="xMidYMid meet" version="1.0"><defs><g/><clipPath id="104a558a69"><rect x="0" width="120" y="0" height="93"/></clipPath><clipPath id="cac1a740e8"><path d="M 96 134 L 124 134 L 124 194 L 96 194 Z M 96 134 " clip-rule="nonzero"/></clipPath><clipPath id="fc4c9a710b"><path d="M 91.777344 137.605469 L 120.804688 133.984375 L 127.859375 190.546875 L 98.835938 194.167969 Z M 91.777344 137.605469 " clip-rule="nonzero"/></clipPath><clipPath id="11b9ee4a8c"><path d="M 91.777344 137.605469 L 120.804688 133.984375 L 127.859375 190.546875 L 98.835938 194.167969 Z M 91.777344 137.605469 " clip-rule="nonzero"/></clipPath><clipPath id="7e5f694868"><path d="M 109 150 L 137 150 L 137 209 L 109 209 Z M 109 150 " clip-rule="nonzero"/></clipPath><clipPath id="fb3b4b21d0"><path d="M 104.351562 153.03125 L 133.375 149.410156 L 140.433594 205.96875 L 111.40625 209.589844 Z M 104.351562 153.03125 " clip-rule="nonzero"/></clipPath><clipPath id="6e36340e73"><path d="M 104.351562 153.03125 L 133.375 149.410156 L 140.433594 205.96875 L 111.40625 209.589844 Z M 104.351562 153.03125 " clip-rule="nonzero"/></clipPath><clipPath id="46dc1d0de1"><path d="M 83 121 L 110 121 L 110 180 L 83 180 Z M 83 121 " clip-rule="nonzero"/></clipPath><clipPath id="9f1a42b150"><path d="M 78.089844 124.132812 L 107.113281 120.511719 L 114.167969 177.070312 L 85.144531 180.691406 Z M 78.089844 124.132812 " clip-rule="nonzero"/></clipPath><clipPath id="5a4efc7948"><path d="M 78.089844 124.132812 L 107.113281 120.511719 L 114.167969 177.070312 L 85.144531 180.691406 Z M 78.089844 124.132812 " clip-rule="nonzero"/></clipPath></defs><rect x="-37.5" width="450" fill="#ffffff" y="-37.499999" height="449.999989" fill-opacity="1"/><rect x="-37.5" width="450" fill="#004aad" y="-37.499999" height="449.999989" fill-opacity="1"/><g transform="matrix(1, 0, 0, 1, 172, 117)"><g clip-path="url(#104a558a69)"><g fill="#ffffff" fill-opacity="1"><g transform="translate(0.876209, 29.441768)"><g><path d="M 9.515625 0.421875 C 7.804688 0.421875 6.148438 0.210938 4.546875 -0.203125 C 2.941406 -0.628906 1.632812 -1.191406 0.625 -1.890625 L 2.59375 -6.296875 C 3.53125 -5.671875 4.617188 -5.164062 5.859375 -4.78125 C 7.109375 -4.40625 8.335938 -4.21875 9.546875 -4.21875 C 11.828125 -4.21875 12.96875 -4.785156 12.96875 -5.921875 C 12.96875 -6.523438 12.640625 -6.972656 11.984375 -7.265625 C 11.335938 -7.554688 10.289062 -7.863281 8.84375 -8.1875 C 7.257812 -8.53125 5.9375 -8.894531 4.875 -9.28125 C 3.8125 -9.675781 2.898438 -10.300781 2.140625 -11.15625 C 1.378906 -12.019531 1 -13.1875 1 -14.65625 C 1 -15.9375 1.347656 -17.09375 2.046875 -18.125 C 2.742188 -19.164062 3.789062 -19.984375 5.1875 -20.578125 C 6.582031 -21.179688 8.296875 -21.484375 10.328125 -21.484375 C 11.710938 -21.484375 13.078125 -21.328125 14.421875 -21.015625 C 15.765625 -20.703125 16.945312 -20.25 17.96875 -19.65625 L 16.125 -15.234375 C 14.125 -16.316406 12.179688 -16.859375 10.296875 -16.859375 C 9.109375 -16.859375 8.242188 -16.679688 7.703125 -16.328125 C 7.160156 -15.972656 6.890625 -15.515625 6.890625 -14.953125 C 6.890625 -14.390625 7.207031 -13.96875 7.84375 -13.6875 C 8.488281 -13.40625 9.523438 -13.113281 10.953125 -12.8125 C 12.554688 -12.476562 13.882812 -12.113281 14.9375 -11.71875 C 15.988281 -11.332031 16.898438 -10.710938 17.671875 -9.859375 C 18.453125 -9.003906 18.84375 -7.84375 18.84375 -6.375 C 18.84375 -5.113281 18.488281 -3.972656 17.78125 -2.953125 C 17.082031 -1.929688 16.03125 -1.113281 14.625 -0.5 C 13.21875 0.113281 11.515625 0.421875 9.515625 0.421875 Z M 9.515625 0.421875 "/></g></g></g><g fill="#ffffff" fill-opacity="1"><g transform="translate(20.340202, 29.441768)"><g><path d="M 16.21875 -4.09375 L 7.3125 -4.09375 L 5.65625 0 L -0.421875 0 L 8.875 -21.0625 L 14.75 -21.0625 L 24.078125 0 L 17.875 0 Z M 14.46875 -8.484375 L 11.765625 -15.234375 L 9.0625 -8.484375 Z M 14.46875 -8.484375 "/></g></g></g><g fill="#ffffff" fill-opacity="1"><g transform="translate(43.985782, 29.441768)"><g><path d="M 8.0625 -16.46875 L 8.0625 -11.828125 L 17.359375 -11.828125 L 17.359375 -7.21875 L 8.0625 -7.21875 L 8.0625 0 L 2.109375 0 L 2.109375 -21.0625 L 18.625 -21.0625 L 18.625 -16.46875 Z M 8.0625 -16.46875 "/></g></g></g><g fill="#ffffff" fill-opacity="1"><g transform="translate(63.299342, 29.441768)"><g><path d="M 19.015625 -4.609375 L 19.015625 0 L 2.109375 0 L 2.109375 -21.0625 L 18.625 -21.0625 L 18.625 -16.46875 L 8 -16.46875 L 8 -12.90625 L 17.359375 -12.90625 L 17.359375 -8.453125 L 8 -8.453125 L 8 -4.609375 Z M 19.015625 -4.609375 "/></g></g></g><g fill="#ffffff" fill-opacity="1"><g transform="translate(0.876209, 56.984057)"><g><path d="M 9.515625 0.421875 C 7.804688 0.421875 6.148438 0.210938 4.546875 -0.203125 C 2.941406 -0.628906 1.632812 -1.191406 0.625 -1.890625 L 2.59375 -6.296875 C 3.53125 -5.671875 4.617188 -5.164062 5.859375 -4.78125 C 7.109375 -4.40625 8.335938 -4.21875 9.546875 -4.21875 C 11.828125 -4.21875 12.96875 -4.785156 12.96875 -5.921875 C 12.96875 -6.523438 12.640625 -6.972656 11.984375 -7.265625 C 11.335938 -7.554688 10.289062 -7.863281 8.84375 -8.1875 C 7.257812 -8.53125 5.9375 -8.894531 4.875 -9.28125 C 3.8125 -9.675781 2.898438 -10.300781 2.140625 -11.15625 C 1.378906 -12.019531 1 -13.1875 1 -14.65625 C 1 -15.9375 1.347656 -17.09375 2.046875 -18.125 C 2.742188 -19.164062 3.789062 -19.984375 5.1875 -20.578125 C 6.582031 -21.179688 8.296875 -21.484375 10.328125 -21.484375 C 11.710938 -21.484375 13.078125 -21.328125 14.421875 -21.015625 C 15.765625 -20.703125 16.945312 -20.25 17.96875 -19.65625 L 16.125 -15.234375 C 14.125 -16.316406 12.179688 -16.859375 10.296875 -16.859375 C 9.109375 -16.859375 8.242188 -16.679688 7.703125 -16.328125 C 7.160156 -15.972656 6.890625 -15.515625 6.890625 -14.953125 C 6.890625 -14.390625 7.207031 -13.96875 7.84375 -13.6875 C 8.488281 -13.40625 9.523438 -13.113281 10.953125 -12.8125 C 12.554688 -12.476562 13.882812 -12.113281 14.9375 -11.71875 C 15.988281 -11.332031 16.898438 -10.710938 17.671875 -9.859375 C 18.453125 -9.003906 18.84375 -7.84375 18.84375 -6.375 C 18.84375 -5.113281 18.488281 -3.972656 17.78125 -2.953125 C 17.082031 -1.929688 16.03125 -1.113281 14.625 -0.5 C 13.21875 0.113281 11.515625 0.421875 9.515625 0.421875 Z M 9.515625 0.421875 "/></g></g></g><g fill="#ffffff" fill-opacity="1"><g transform="translate(20.340202, 56.984057)"><g><path d="M 11.734375 -21.0625 C 13.640625 -21.0625 15.296875 -20.742188 16.703125 -20.109375 C 18.109375 -19.484375 19.191406 -18.582031 19.953125 -17.40625 C 20.710938 -16.238281 21.09375 -14.859375 21.09375 -13.265625 C 21.09375 -11.679688 20.710938 -10.304688 19.953125 -9.140625 C 19.191406 -7.984375 18.109375 -7.085938 16.703125 -6.453125 C 15.296875 -5.816406 13.640625 -5.5 11.734375 -5.5 L 8.0625 -5.5 L 8.0625 0 L 2.109375 0 L 2.109375 -21.0625 Z M 11.375 -10.203125 C 12.601562 -10.203125 13.523438 -10.46875 14.140625 -11 C 14.765625 -11.53125 15.078125 -12.285156 15.078125 -13.265625 C 15.078125 -14.253906 14.765625 -15.019531 14.140625 -15.5625 C 13.523438 -16.101562 12.601562 -16.375 11.375 -16.375 L 8.0625 -16.375 L 8.0625 -10.203125 Z M 11.375 -10.203125 "/></g></g></g><g fill="#ffffff" fill-opacity="1"><g transform="translate(42.511703, 56.984057)"><g><path d="M 12.734375 0.421875 C 10.503906 0.421875 8.5 -0.046875 6.71875 -0.984375 C 4.945312 -1.929688 3.550781 -3.238281 2.53125 -4.90625 C 1.519531 -6.570312 1.015625 -8.445312 1.015625 -10.53125 C 1.015625 -12.613281 1.519531 -14.488281 2.53125 -16.15625 C 3.550781 -17.820312 4.945312 -19.125 6.71875 -20.0625 C 8.5 -21.007812 10.503906 -21.484375 12.734375 -21.484375 C 14.953125 -21.484375 16.945312 -21.007812 18.71875 -20.0625 C 20.5 -19.125 21.894531 -17.820312 22.90625 -16.15625 C 23.925781 -14.488281 24.4375 -12.613281 24.4375 -10.53125 C 24.4375 -8.445312 23.925781 -6.570312 22.90625 -4.90625 C 21.894531 -3.238281 20.5 -1.929688 18.71875 -0.984375 C 16.945312 -0.046875 14.953125 0.421875 12.734375 0.421875 Z M 12.734375 -4.515625 C 13.796875 -4.515625 14.753906 -4.765625 15.609375 -5.265625 C 16.472656 -5.765625 17.15625 -6.46875 17.65625 -7.375 C 18.164062 -8.289062 18.421875 -9.34375 18.421875 -10.53125 C 18.421875 -11.71875 18.164062 -12.765625 17.65625 -13.671875 C 17.15625 -14.585938 16.472656 -15.296875 15.609375 -15.796875 C 14.753906 -16.296875 13.796875 -16.546875 12.734375 -16.546875 C 11.671875 -16.546875 10.707031 -16.296875 9.84375 -15.796875 C 8.976562 -15.296875 8.296875 -14.585938 7.796875 -13.671875 C 7.296875 -12.765625 7.046875 -11.71875 7.046875 -10.53125 C 7.046875 -9.34375 7.296875 -8.289062 7.796875 -7.375 C 8.296875 -6.46875 8.976562 -5.765625 9.84375 -5.265625 C 10.707031 -4.765625 11.671875 -4.515625 12.734375 -4.515625 Z M 12.734375 -4.515625 "/></g></g></g><g fill="#ffffff" fill-opacity="1"><g transform="translate(67.962288, 56.984057)"><g><path d="M 11.3125 -5.59375 L 8.0625 -5.59375 L 8.0625 0 L 2.109375 0 L 2.109375 -21.0625 L 11.734375 -21.0625 C 13.640625 -21.0625 15.296875 -20.742188 16.703125 -20.109375 C 18.109375 -19.484375 19.191406 -18.582031 19.953125 -17.40625 C 20.710938 -16.238281 21.09375 -14.859375 21.09375 -13.265625 C 21.09375 -11.742188 20.734375 -10.414062 20.015625 -9.28125 C 19.304688 -8.144531 18.289062 -7.257812 16.96875 -6.625 L 21.515625 0 L 15.140625 0 Z M 15.078125 -13.265625 C 15.078125 -14.253906 14.765625 -15.019531 14.140625 -15.5625 C 13.523438 -16.101562 12.601562 -16.375 11.375 -16.375 L 8.0625 -16.375 L 8.0625 -10.203125 L 11.375 -10.203125 C 12.601562 -10.203125 13.523438 -10.46875 14.140625 -11 C 14.765625 -11.53125 15.078125 -12.285156 15.078125 -13.265625 Z M 15.078125 -13.265625 "/></g></g></g><g fill="#ffffff" fill-opacity="1"><g transform="translate(90.224026, 56.984057)"><g><path d="M 6.59375 -16.34375 L 0.125 -16.34375 L 0.125 -21.0625 L 18.984375 -21.0625 L 18.984375 -16.34375 L 12.546875 -16.34375 L 12.546875 0 L 6.59375 0 Z M 6.59375 -16.34375 "/></g></g></g><g fill="#ffffff" fill-opacity="1"><g transform="translate(109.344466, 56.984057)"><g/></g></g><g fill="#ffffff" fill-opacity="1"><g transform="translate(0.876209, 84.526346)"><g><path d="M 3.671875 -21.0625 L 5.203125 -21.0625 L 5.203125 0 L 3.671875 0 Z M 3.671875 -21.0625 "/></g></g></g><g fill="#ffffff" fill-opacity="1"><g transform="translate(9.750821, 84.526346)"><g><path d="M 20.828125 -21.0625 L 20.828125 0 L 19.5625 0 L 5.203125 -18.296875 L 5.203125 0 L 3.671875 0 L 3.671875 -21.0625 L 4.96875 -21.0625 L 19.296875 -2.765625 L 19.296875 -21.0625 Z M 20.828125 -21.0625 "/></g></g></g><g fill="#ffffff" fill-opacity="1"><g transform="translate(34.238747, 84.526346)"><g><path d="M 3.671875 -21.0625 L 12 -21.0625 C 14.1875 -21.0625 16.128906 -20.609375 17.828125 -19.703125 C 19.523438 -18.804688 20.84375 -17.5625 21.78125 -15.96875 C 22.726562 -14.375 23.203125 -12.5625 23.203125 -10.53125 C 23.203125 -8.507812 22.726562 -6.695312 21.78125 -5.09375 C 20.84375 -3.5 19.523438 -2.25 17.828125 -1.34375 C 16.128906 -0.445312 14.1875 0 12 0 L 3.671875 0 Z M 11.890625 -1.390625 C 13.835938 -1.390625 15.550781 -1.773438 17.03125 -2.546875 C 18.519531 -3.316406 19.664062 -4.394531 20.46875 -5.78125 C 21.269531 -7.164062 21.671875 -8.75 21.671875 -10.53125 C 21.671875 -12.320312 21.269531 -13.90625 20.46875 -15.28125 C 19.664062 -16.664062 18.519531 -17.742188 17.03125 -18.515625 C 15.550781 -19.296875 13.835938 -19.6875 11.890625 -19.6875 L 5.203125 -19.6875 L 5.203125 -1.390625 Z M 11.890625 -1.390625 "/></g></g></g><g fill="#ffffff" fill-opacity="1"><g transform="translate(59.087677, 84.526346)"><g><path d="M 3.671875 -21.0625 L 5.203125 -21.0625 L 5.203125 0 L 3.671875 0 Z M 3.671875 -21.0625 "/></g></g></g><g fill="#ffffff" fill-opacity="1"><g transform="translate(67.962289, 84.526346)"><g><path d="M 16.703125 -5.921875 L 4.484375 -5.921875 L 1.8125 0 L 0.15625 0 L 9.84375 -21.0625 L 11.375 -21.0625 L 21.0625 0 L 19.40625 0 Z M 16.125 -7.21875 L 10.59375 -19.375 L 5.078125 -7.21875 Z M 16.125 -7.21875 "/></g></g></g></g></g><g clip-path="url(#cac1a740e8)"><g clip-path="url(#fc4c9a710b)"><g clip-path="url(#11b9ee4a8c)"><path fill="#ffffff" d="M 114.054688 134.9375 C 114.210938 135.457031 114.433594 137.007812 114.453125 137.703125 C 114.507812 139.929688 114.195312 142.085938 113.453125 144.574219 C 112.128906 148.992188 109.457031 154.078125 105.71875 159.277344 C 105.085938 160.160156 103.757812 161.859375 103.207031 162.496094 C 102.554688 163.246094 101.386719 164.742188 100.929688 165.414062 C 98.863281 168.433594 97.589844 171.453125 97.113281 174.464844 C 96.449219 178.664062 97.226562 182.792969 99.445312 186.835938 C 100.550781 188.855469 102.042969 190.84375 103.675781 192.488281 C 104.007812 192.820312 104.597656 193.371094 104.609375 193.359375 C 104.613281 193.355469 104.625 193.144531 104.636719 192.894531 C 104.855469 188.175781 107.179688 182.605469 111.457031 176.558594 C 113.292969 173.964844 115.574219 171.199219 117.710938 168.988281 C 118.40625 168.265625 118.773438 167.847656 119.324219 167.15625 C 122.199219 163.546875 123.597656 159.535156 123.523438 155.117188 C 123.496094 153.554688 123.238281 151.734375 122.8125 150.070312 C 122.378906 148.375 121.691406 146.511719 120.855469 144.761719 C 119.515625 141.957031 117.625 139.039062 115.492188 136.476562 C 115.046875 135.941406 114.273438 135.070312 114.117188 134.929688 L 114.027344 134.847656 Z M 114.054688 134.9375 " fill-opacity="1" fill-rule="evenodd"/></g></g></g><g clip-path="url(#7e5f694868)"><g clip-path="url(#fb3b4b21d0)"><g clip-path="url(#6e36340e73)"><path fill="#ffffff" d="M 126.628906 150.363281 C 126.785156 150.882812 127.007812 152.429688 127.027344 153.128906 C 127.082031 155.355469 126.769531 157.511719 126.027344 160 C 124.703125 164.417969 122.03125 169.5 118.292969 174.703125 C 117.660156 175.582031 116.332031 177.285156 115.78125 177.917969 C 115.128906 178.671875 113.960938 180.167969 113.503906 180.839844 C 111.4375 183.859375 110.164062 186.878906 109.6875 189.890625 C 109.023438 194.089844 109.800781 198.21875 112.019531 202.261719 C 113.125 204.277344 114.613281 206.265625 116.25 207.914062 C 116.578125 208.246094 117.171875 208.796875 117.183594 208.785156 C 117.1875 208.78125 117.199219 208.570312 117.210938 208.320312 C 117.429688 203.601562 119.753906 198.03125 124.03125 191.984375 C 125.863281 189.390625 128.148438 186.625 130.285156 184.410156 C 130.980469 183.6875 131.347656 183.273438 131.898438 182.582031 C 134.773438 178.972656 136.171875 174.960938 136.09375 170.539062 C 136.070312 168.980469 135.8125 167.160156 135.386719 165.496094 C 134.953125 163.800781 134.265625 161.9375 133.429688 160.1875 C 132.085938 157.382812 130.199219 154.464844 128.066406 151.902344 C 127.621094 151.367188 126.847656 150.496094 126.691406 150.355469 L 126.601562 150.269531 Z M 126.628906 150.363281 " fill-opacity="1" fill-rule="evenodd"/></g></g></g><g clip-path="url(#46dc1d0de1)"><g clip-path="url(#9f1a42b150)"><g clip-path="url(#5a4efc7948)"><path fill="#ffffff" d="M 100.363281 121.464844 C 100.523438 121.984375 100.746094 123.53125 100.761719 124.230469 C 100.820312 126.457031 100.503906 128.613281 99.761719 131.097656 C 98.4375 135.519531 95.765625 140.601562 92.027344 145.804688 C 91.394531 146.683594 90.066406 148.386719 89.519531 149.019531 C 88.867188 149.773438 87.699219 151.269531 87.238281 151.941406 C 85.171875 154.960938 83.898438 157.980469 83.421875 160.992188 C 82.757812 165.191406 83.539062 169.320312 85.753906 173.363281 C 86.863281 175.378906 88.351562 177.367188 89.988281 179.015625 C 90.316406 179.347656 90.90625 179.898438 90.917969 179.886719 C 90.921875 179.882812 90.933594 179.671875 90.945312 179.421875 C 91.164062 174.703125 93.492188 169.132812 97.765625 163.085938 C 99.601562 160.492188 101.886719 157.726562 104.019531 155.511719 C 104.71875 154.789062 105.085938 154.375 105.636719 153.683594 C 108.507812 150.074219 109.90625 146.0625 109.832031 141.640625 C 109.804688 140.082031 109.550781 138.261719 109.125 136.597656 C 108.691406 134.902344 108.003906 133.039062 107.164062 131.289062 C 105.824219 128.484375 103.933594 125.566406 101.804688 123.003906 C 101.359375 122.46875 100.582031 121.597656 100.429688 121.457031 L 100.335938 121.371094 Z M 100.363281 121.464844 " fill-opacity="1" fill-rule="evenodd"/></g></g></g><path stroke-linecap="butt" transform="matrix(0, 0.75, -0.75, 0, 154.872842, 129.009836)" fill="none" stroke-linejoin="miter" d="M 0.0025099 0.50233 L 98.27335 0.50233 " stroke="#ffffff" stroke-width="1" stroke-opacity="1" stroke-miterlimit="4"/></svg>
